<?xml version="1.0" encoding="iso-8859-1"?>
<!-- Uploaded to: SVG Repo, www.svgrepo.com, Generator: SVG Repo Mixer Tools -->
<svg fill="#000000" height="800px" width="800px" version="1.1" id="Layer_1" xmlns="http://www.w3.org/2000/svg" xmlns:xlink="http://www.w3.org/1999/xlink" 
	 viewBox="0 0 502 502" xml:space="preserve">
<g>
	<g>
		<g>
			<path d="M389.982,274.329c-5.362-1.325-10.782,1.948-12.106,7.31c-1.324,5.361,1.948,10.782,7.31,12.106
				c24.37,6.02,41.39,27.717,41.39,52.764c0,29.959-24.374,54.333-54.333,54.333H129.758c-29.959,0-54.333-24.374-54.333-54.333
				c0-29.959,24.374-54.333,54.333-54.333h74.127v45.425c0,5.523,4.478,10,10,10h74.23c5.522,0,10-4.477,10-10v-93.922h9.794
				c5.522,0,10-4.477,10-10v-65.877c0-23.218-18.889-42.106-42.106-42.106h-49.605c-23.218,0-42.106,18.889-42.106,42.106v65.877
				c0,5.523,4.478,10,10,10h9.794v28.497h-74.127c-40.987,0-74.333,33.345-74.333,74.333c0,40.988,33.346,74.333,74.333,74.333
				h242.484c40.987,0,74.333-33.345,74.333-74.333C446.575,312.242,423.303,282.56,389.982,274.329z M278.115,327.602H261V270
				c0-5.523-4.478-10-10-10c-5.522,0-10,4.477-10,10v57.602h-17.115v-83.922h54.23V327.602z M204.091,167.802
				c0-12.189,9.917-22.106,22.106-22.106h49.605c12.189,0,22.106,9.917,22.106,22.106v55.877h-93.817V167.802z"/>
			<path d="M330.179,292.177h17.815c5.522,0,10-4.477,10-10s-4.478-10-10-10h-17.815c-5.522,0-10,4.477-10,10
				S324.656,292.177,330.179,292.177z"/>
			<path d="M251,116.994c25.161,0,45.631-20.47,45.631-45.63c0-25.16-20.47-45.63-45.631-45.63c-25.161,0-45.631,20.47-45.631,45.63
				C205.369,96.523,225.839,116.994,251,116.994z M251,45.732c14.133,0,25.631,11.498,25.631,25.63
				c0,14.132-11.498,25.631-25.631,25.631s-25.631-11.498-25.631-25.63C225.369,57.231,236.867,45.732,251,45.732z"/>
			<path d="M32.764,337.498H10c-5.522,0-10,4.477-10,10s4.478,10,10,10h22.764c5.522,0,10-4.477,10-10
				S38.286,337.498,32.764,337.498z"/>
			<path d="M492,337.498h-22.764c-5.522,0-10,4.477-10,10s4.478,10,10,10H492c5.522,0,10-4.477,10-10S497.522,337.498,492,337.498z"
				/>
			<path d="M251,433.503c-5.522,0-10,4.477-10,10v22.764c0,5.523,4.478,10,10,10c5.522,0,10-4.477,10-10v-22.764
				C261,437.979,256.522,433.503,251,433.503z"/>
		</g>
	</g>
</g>
</svg>